<?xml version="1.0" encoding="UTF-8"?>
<svg id="Capa_1" data-name="Capa 1" xmlns="http://www.w3.org/2000/svg" viewBox="0 0 1129 663">
  <defs>
    <style>
      .cls-1 {
        fill: #3f3d56;
      }

      .cls-1, .cls-2, .cls-3 {
        stroke-width: 0px;
      }

      .cls-2 {
        fill: #f2f2f2;
      }

      .cls-3 {
        fill: #910419;
      }
    </style>
  </defs>
  <circle class="cls-2" cx="542.03" cy="347.23" r="147.34"/>
  <g>
    <path class="cls-3" d="M758.74,461.8c-2.98,0-4.82-2.39-5.65-3.82-24.56-42.18-48.36-83.73-66.35-115.22-1.75-3.06-1.56-5.06.77-7.93,2.32-2.86,4.04-2.86,4.97-2.86.79,0,1.68.13,2.66.39,4.08,1.06,8.15,2.11,12.6,3.24l27.77,7.12-2.98-21.73c-6.96-50.81-29.78-92.88-67.83-125.04-20.08-16.97-43.75-29.35-70.34-36.81-7.23-2.03-8.76-4.73-6.82-12.07,7.39-27.98,14.76-55.49,21.92-81.79,1.21-4.45,3.5-6.7,6.81-6.7.99,0,2.08.18,3.23.53,57.85,17.68,104.97,46.03,140.07,84.25,35.12,38.25,59.32,87.63,71.92,146.76,3.03,14.23,3.59,29.22,4.17,45.08.23,6.08.46,12.38.85,18.62.73,11.75,6.53,18.84,17.24,21.07,6.48,1.35,12.97,3.3,19.83,5.35l2.19.66c3.51,1.05,4.85,2.58,5.33,6.06.55,3.98-.8,5.63-3.15,7-45.08,26.32-81.8,47.53-115.57,66.76-1.25.71-2.47,1.07-3.63,1.07Z"/>
    <path class="cls-1" d="M541.77,638.09c-4.75,0-9.59-.1-14.42-.3-48.81-2.03-95.21-16.44-137.93-42.81-1.53-.95-3.1-1.85-4.89-2.88-.8-.46-1.65-.95-2.58-1.49l-9.97-5.8-14.23,14.69c-4.34,4.49-8.66,8.96-13,13.4-2.16,2.21-4.13,3.34-5.85,3.34-.87,0-1.89-.24-3.04-.72-2.64-1.1-4.66-2.41-4.65-8.24.03-21.17.03-42.34.03-63.51,0-22.11,0-44.22.03-66.32.01-6.16,2.49-8.68,8.56-8.7,19.47-.05,38.94-.07,58.42-.07,16.81,0,33.62.01,50.44.03h20.68c5.78.02,7.14,2.17,8.21,4.76,1.03,2.49,1.54,4.88-2.64,8.95-2.57,2.51-5.26,4.94-8.36,7.74-1.5,1.36-3.05,2.76-4.68,4.25l-16.57,15.2,20.54,9.13c22.37,9.95,44.43,15.21,67.45,16.08,2.85.11,5.71.16,8.52.16,51.37,0,96.35-18.17,133.7-53.99,2.93-2.81,5.64-4.43,7.41-4.43s4.54,1.69,7.5,4.65c19.19,19.17,38.36,38.35,57.5,57.58,3.13,3.14,4.9,6.06,4.88,8-.02,1.84-1.75,4.55-4.74,7.42-58.05,55.66-127.47,83.88-206.32,83.88Z"/>
    <path class="cls-1" d="M264.82,424.85c-2.56,0-4.99-.04-7.44-9.93-30.99-124.96,21.46-254.41,130.52-322.11,6.16-3.83,11.29-6.72,16.13-9.11,9.73-4.8,13.72-13.94,10.65-24.46-1.89-6.49-4.08-14.18-6.03-22.03-1.58-6.37.59-7.99,2.33-9.28,2.01-1.49,3.3-1.66,4.09-1.66,1.69,0,3.61.9,4.92,1.66l26.82,15.5c28.14,16.26,57.25,33.07,85.79,49.72,5.19,3.03,6.07,6.2,3.15,11.32-21.62,37.87-43.23,75.29-65.31,113.49-2.28,3.94-4.35,4.27-6.12,4.27-.49,0-1.02-.04-1.58-.12-2.62-.37-4.91-1.11-6.38-6.48-1.01-3.68-2.01-7.37-3.1-11.41l-7.34-27.08-17.32,12.72c-19.44,14.27-34.91,30.89-47.31,50.79-28.79,46.2-36.91,96.31-24.14,148.94,2.13,8.77.81,11.02-7.86,13.38-17.02,4.62-34.06,9.18-51.1,13.74-8.65,2.32-17.3,4.63-25.95,6.95-2.92.79-5.41,1.18-7.4,1.18h-.03Z"/>
  </g>
</svg>