<?xml version="1.0" encoding="UTF-8"?>
<svg id="Capa_1" data-name="Capa 1" xmlns="http://www.w3.org/2000/svg" viewBox="0 0 1129 663">
  <defs>
    <style>
      .cls-1 {
        fill: #9e9e9e;
      }

      .cls-1, .cls-2 {
        stroke-width: 0px;
      }

      .cls-2 {
        fill: #910419;
      }
    </style>
  </defs>
  <path class="cls-1" d="M688.95,509.05c6.18-5.17,10.95-9.03,15.58-13.05,42.3-36.76,67.53-82.93,73.59-138.7,7.78-71.6-14.79-132.87-66.78-182.51-33.77-32.25-74.48-50.9-120.98-56.19-9.37-1.07-18.87-1.43-28.31-1.44-86.12-.11-172.24-.07-258.36-.06q-10.26,0-10.28,10.46c-.01,4.86.28,9.74-.16,14.56-.2,2.23-1.35,5.58-2.9,6.15-1.62.6-4.87-.96-6.33-2.56-13.05-14.35-25.86-28.92-38.74-43.43-1.23-1.38-2.45-2.77-3.72-4.11-9.62-10.26-9.74-10.36-.59-20.65,14.13-15.87,28.38-31.64,42.75-47.29,1.68-1.83,4.48-2.63,6.77-3.91.97,2.62,2.6,5.19,2.78,7.86.43,6.22.24,12.48.15,18.73-.06,4.1,1.77,5.97,5.85,5.81,2.3-.09,4.62.01,6.93.01,88.2.02,176.4-.7,264.59.28,70.17.78,130.92,26.6,181.96,74.87,43.94,41.56,71.4,92.36,81.23,152.02,13.27,80.56-5.98,153.2-55.83,217.76-3.37,4.37-7.31,6.39-12.98,6.33-22.62-.24-45.25-.08-67.88-.13-2.17,0-4.34-.41-8.33-.81Z"/>
  <path class="cls-1" d="M438.36,156.67c-9.54,8.72-19.11,16.63-27.71,25.47-33.85,34.78-53.89,76.37-59.41,124.7-6.63,58.08,7.41,110.88,43.13,157.05,36.29,46.92,84.33,74.54,143.29,82.26,9.79,1.28,19.78,1.46,29.67,1.47,86.11.11,172.22.07,258.33.06q10.63,0,10.66-10.85c.01-5.09-.18-10.19.18-15.26.13-1.81,1.37-4.77,2.53-5,1.81-.35,4.61.6,5.9,2.01,12.6,13.81,24.97,27.85,37.43,41.79,3.54,3.96,7.21,7.81,10.76,11.76,2.94,3.26,2.93,6.3-.17,9.74-15.63,17.31-31.03,34.82-46.72,52.07-1.77,1.95-4.84,2.7-7.31,4.01-.87-2.7-2.29-5.35-2.48-8.1-.39-5.76-.26-11.56-.1-17.34.13-4.64-1.69-6.88-6.5-6.69-4.38.18-8.77.02-13.16.02-85.42-.01-170.84.52-256.25-.21-64.67-.55-122.07-22.4-171.51-64.25-51.41-43.51-83.15-98.76-93.54-165.32-12.45-79.8,6.91-151.82,56.89-215.33,1.87-2.38,5.65-4.55,8.57-4.59,24.7-.36,49.4-.22,74.1-.19,1.04,0,2.07.4,3.41.68Z"/>
  <path class="cls-2" d="M718.22,58.57c2.46,0,4.92,0,7.38,0,33.91,0,67.82-.14,101.72.11,6.58.05,9.25-2.01,8.78-8.72-.42-5.98-.29-12.03.1-18.01.13-1.97,1.39-4.52,2.95-5.52.97-.62,4.03.68,5.21,1.98,16.61,18.28,33.05,36.7,49.53,55.09,2.89,3.23,2.22,6.18-.48,9.19-15.71,17.53-31.3,35.18-47.17,52.56-1.74,1.9-5,2.41-7.55,3.57-.89-2.44-2.37-4.84-2.54-7.33-.39-5.52-.38-11.1-.07-16.63.32-5.6-1.63-7.94-7.49-7.75-10.6.34-21.22.26-31.82-.04-2.8-.08-6.35-.76-8.2-2.56-21.41-20.86-44.57-39.41-70.7-54.12l.36-1.83Z"/>
  <path class="cls-2" d="M411.9,605.86c-9.38,0-16.72,0-24.07,0-28.62,0-57.25.16-85.87-.11-6.57-.06-9.27,1.99-8.79,8.72.42,5.98.24,12.03-.07,18.03-.1,1.84-1.26,4.91-2.36,5.11-1.79.33-4.55-.66-5.83-2.07-16.46-18.11-32.73-36.39-49.04-54.64-3.39-3.79-1.14-6.83,1.44-9.7,13.74-15.28,27.51-30.53,41.27-45.78,1.24-1.37,2.33-2.96,3.8-4.02,2.58-1.88,5.4-3.43,8.12-5.12.92,3.12,2.34,6.19,2.64,9.37.45,4.81.36,9.72.07,14.56-.35,5.84,2.29,7.71,7.83,7.57,10.38-.26,20.79-.36,31.15.11,3.37.15,7.52,1.42,9.83,3.69,20.02,19.7,41.85,36.99,66.14,51.11.76.44,1.37,1.15,3.73,3.18Z"/>
</svg>