<?xml version="1.0" encoding="UTF-8"?>
<svg xmlns="http://www.w3.org/2000/svg" viewBox="0 0 1129 663">
  <defs>
    <style>
      .cls-1, .cls-2, .cls-3, .cls-4, .cls-5, .cls-6, .cls-7, .cls-8 {
        stroke-width: 0px;
      }

      .cls-1, .cls-3 {
        fill: #606060;
      }

      .cls-2 {
        fill: #ffc01a;
      }

      .cls-3 {
        mix-blend-mode: multiply;
      }

      .cls-4 {
        fill: #9e9e9e;
      }

      .cls-5 {
        fill: #3f3d56;
      }

      .cls-6 {
        fill: #f2f2f2;
      }

      .cls-9 {
        isolation: isolate;
      }

      .cls-7 {
        fill: #440912;
      }

      .cls-8 {
        fill: #910419;
      }
    </style>
  </defs>
  <g class="cls-9">
    <g id="Capa_1" data-name="Capa 1">
      <path class="cls-1" d="M960.68,93.02c0-25.63-20.77-46.4-46.4-46.4H214.72c-25.63,0-46.4,20.77-46.4,46.4v36.75h792.36v-36.75Z"/>
      <path class="cls-4" d="M214.72,616.38h699.56c25.63,0,46.4-20.77,46.4-46.4V129.78H168.32v440.2c0,25.63,20.77,46.4,46.4,46.4Z"/>
      <circle class="cls-8" cx="247.59" cy="88.2" r="20.84"/>
      <circle class="cls-5" cx="312.96" cy="88.2" r="20.84"/>
      <circle class="cls-5" cx="377.08" cy="88.2" r="20.84"/>
      <rect class="cls-6" x="226.75" y="191.03" width="301.99" height="173.05" rx="12.09" ry="12.09"/>
      <rect class="cls-3" x="226.75" y="394.14" width="301.99" height="24.71" rx="12.36" ry="12.36"/>
      <rect class="cls-3" x="226.75" y="437.09" width="301.99" height="24.71" rx="12.36" ry="12.36"/>
      <rect class="cls-3" x="226.75" y="480.04" width="179.76" height="24.71" rx="12.36" ry="12.36"/>
      <g>
        <path class="cls-7" d="M774.07,230.51h-98.1l-48.75-48.89V53.03c0-14.78,11.98-26.75,26.75-26.75h24.17c14.78,0,26.75,11.98,26.75,26.75v107.67l69.18,69.82Z"/>
        <path class="cls-8" d="M719.51,230.51h98.1s48.75-48.89,48.75-48.89V53.03c0-14.78-11.98-26.75-26.75-26.75h-24.17c-14.78,0-26.75,11.98-26.75,26.75v107.67s-69.18,69.82-69.18,69.82Z"/>
        <rect class="cls-6" x="680.04" y="230.51" width="133.45" height="57.12"/>
        <circle class="cls-2" cx="746.76" cy="367.74" r="108.55"/>
        <path class="cls-6" d="M761.05,348.39h38.22c5.68,0,8.04,7.26,3.44,10.6l-30.92,22.47,11.81,36.35c1.75,5.4-4.42,9.89-9.02,6.55l-30.92-22.47-30.92,22.47c-4.59,3.34-10.77-1.15-9.02-6.55l11.81-36.35-30.92-22.47c-4.59-3.34-2.23-10.6,3.44-10.6h38.22s11.81-36.35,11.81-36.35c1.75-5.4,9.39-5.4,11.14,0l11.81,36.35Z"/>
      </g>
    </g>
  </g>
</svg>